PathFileType	4	(X/Y/Z)	28_2_56_p1_0-285.trc
DataRate	CameraRate	NumFrames	NumMarkers	Units	OrigDataRate	OrigDataStartFrame	OrigNumFrames
59.0	59.0	6	27	m	59.0	214	286
Frame#	Time	RHip			RKnee			RAnkle			RBigToe			RSmallToe			RHeel			LHip			LKnee			LAnkle			LBigToe			LSmallToe			LHeel			Neck			Head			Nose			RShoulder			RElbow			RWrist			RThumb			RIndex			RPinky			LShoulder			LElbow			LWrist			LThumb			LIndex			LPinky			
		X1	Y1	Z1	X2	Y2	Z2	X3	Y3	Z3	X4	Y4	Z4	X5	Y5	Z5	X6	Y6	Z6	X7	Y7	Z7	X8	Y8	Z8	X9	Y9	Z9	X10	Y10	Z10	X11	Y11	Z11	X12	Y12	Z12	X13	Y13	Z13	X14	Y14	Z14	X15	Y15	Z15	X16	Y16	Z16	X17	Y17	Z17	X18	Y18	Z18	X19	Y19	Z19	X20	Y20	Z20	X21	Y21	Z21	X22	Y22	Z22	X23	Y23	Z23	X24	Y24	Z24	X25	Y25	Z25	X26	Y26	Z26	X27	Y27	Z27	
214	3.6271186440677967	0.22368869389762056	0.6025775703811685	0.9382685848856025	0.21353042794070512	0.8067573648283757	1.3185674829627942	0.22124954953913498	1.055880883961899	1.7179363300789856	0.16011388630036388	0.8527436354798498	1.7877922529634296	0.23780964792122145	0.878916831198024	1.7902662160004734	0.20327350876504985	1.1874959689048208	1.7733589795285436	-0.01284557790051624	0.5871329229492133	0.9479410271888407	0.021359383341665546	0.8075913967459588	1.3329308075931046	0.01838563160484636	1.0623193461166536	1.7339302433919512	0.02314190307519089	0.8607195571506903	1.7809889128155325	-0.03875377181791978	0.9365801947937876	1.782903261058957	0.04712101039100354	1.1781730814021705	1.7859684996383407	0.09070537090030556	0.3567988231453583	0.3228175206559085	0.1114109536771644	0.21958157363327382	0.11421837573887789	0.15487932627017553	0.19322325446449232	0.2554760486109799	0.27354875958563624	0.41003545990311563	0.4052405914125873	0.3513147618789173	0.5231337013081413	0.6476617603792767	0.3928368839314405	0.5181952920545165	0.9331085560717152	0.33014436768635774	0.5121928003075866	1.0482214222719977	0.3669098249961934	0.5114081582576009	1.0720805448077924	0.39946031830174955	0.5618245759379192	1.069240044995748	-0.08651876563120119	0.40160387645465484	0.4095199924492216	-0.13105380367957156	0.5072259268210662	0.6953846439055662	-0.13891863324131473	0.5085545594480897	0.969224177131812	-0.08790268019130716	0.4537991066540889	1.0587655901020485	-0.10145349093541428	0.4597521434785995	1.0831449746146777	-0.13898969875407835	0.5520657738022652	1.081020341844612
215	3.6440677966101696	0.2236234862705783	0.6020018018078545	0.9384301944060309	0.21355646455631855	0.8062815098396955	1.3185044106811858	0.22128281795955354	1.055729464264807	1.7178776388853947	0.1601129115997379	0.8523382270554615	1.7876882252612345	0.23789050217501617	0.8786899732117242	1.7901694738387919	0.20328893150321534	1.1872744030779177	1.773452383354801	-0.012900905771297325	0.5867144272315703	0.9479517534184637	0.021317033176012606	0.8075016121948306	1.3329300916847233	0.01715157520359032	1.0583439060857636	1.7287821217879664	0.023043012122708924	0.8606985343899756	1.781016195703563	-0.0388727761531313	0.9369453911379917	1.7830287905295221	0.0472242426191765	1.178354388448857	1.785936093557409	0.09072321357153432	0.35683917167394885	0.3228286373040143	0.1113437204168958	0.21950480082831952	0.11424716420701253	0.15483348075442188	0.19312968681974857	0.25549421012711276	0.2735772868335256	0.41000567642695945	0.40522273533057895	0.3523172107508186	0.5252058551425592	0.6544329677205395	0.3929038553642188	0.5181665348225983	0.9332488630759088	0.3345820948232035	0.523934178191948	1.048153273288102	0.36686225428881997	0.5129999264953553	1.0762487869773836	0.39998393891161366	0.561804178732842	1.0730719957129229	-0.08615084592949337	0.4033782314346308	0.41263264832952684	-0.13363830916829406	0.4950170228521389	0.6973342978627032	-0.13877141680815222	0.5082644246410936	0.9692139874227943	-0.08765492329611368	0.45397020159660423	1.0587158985778249	-0.09414820354791098	0.4475372754586666	1.0790143016419895	-0.1387069038859124	0.5520794077161363	1.0840642018581825
216	3.6610169491525424	0.22410606469034505	0.6042480840717025	0.9384211036188808	0.21336756040886148	0.8069685480649532	1.3186590201223136	0.2212595748261116	1.0556266058977513	1.7177222216951742	0.15842517533065692	0.8498200139267307	1.7841409628492095	0.23724739530256977	0.8787374150246292	1.790502072497151	0.20760780954886712	1.1683409686047213	1.773291255555312	-0.008863701220697916	0.6025956050964784	0.950733847936828	0.017100489700630623	0.8058792278026294	1.3329635745850057	0.017187512344203213	1.058846103358666	1.7290526488523097	0.02386219347630833	0.8611722074875312	1.785552943730748	-0.03357783466936122	0.9215193790077919	1.7836160520928346	0.047444245942577075	1.1803031974340377	1.7865428623741655	0.09073175218671396	0.35682171165815746	0.32279276253000466	0.11118140825591556	0.21946693606253945	0.11422970169829301	0.15114686981337966	0.18363010566764212	0.25877272827399683	0.2693391021434384	0.39929352403432594	0.40814772050126386	0.3524512937057832	0.5254049708300355	0.6544174363598471	0.3929005893851441	0.518105124413824	0.9331816618491943	0.3324423179285629	0.5388793905130966	1.0518125395666715	0.3783147250835677	0.5389602410191106	1.0759366588795574	0.4003504751108627	0.561151695152116	1.0692267188267357	-0.08223965976526293	0.38947101949093643	0.41224182128847964	-0.13369476808050748	0.4951259688392727	0.697442409557054	-0.1387573826667692	0.5077686970441088	0.9692217504982883	-0.08347934325820887	0.45485205275864904	1.062486904287346	-0.09805870499938844	0.4592565841517039	1.078989742168816	-0.14691737180758835	0.5458646421219777	1.080791618603134
217	3.6779661016949152	0.2201926570403957	0.5922146308365052	0.9429562498835745	0.21338827889078116	0.8068041480407818	1.3186960895811046	0.2212403071551747	1.0554872878264183	1.7176965832522912	0.16029928616216874	0.850546208235496	1.7832991090724784	0.2324641515919267	0.8771614547866449	1.7903771267091009	0.20761822738071492	1.1682011229447056	1.773399710064085	-0.012538727523043499	0.5857030413710171	0.9444149300663006	0.017145729004349873	0.8058108238247955	1.3328994149043742	0.01711208619882154	1.0586918777178433	1.7290047678568257	0.023658129480419843	0.8607737659658261	1.7854382044660708	-0.03380459245520408	0.9212598071419055	1.7836532553015945	0.047483350134261214	1.1799642340615129	1.7863525186223899	0.09072607792319434	0.35687055627498615	0.3227965622319171	0.11118357936688991	0.2194000037287037	0.11424541623078108	0.1475482235927925	0.18336515205343662	0.2591673730144485	0.26928832701766414	0.39918410785844116	0.4081202693023905	0.35239730144167647	0.5254951675565727	0.6544421364730696	0.39324235847211914	0.5186270701645707	0.9368336069041825	0.3447949038833318	0.5391429974174774	1.054641141985398	0.37911724745855435	0.5382428095256537	1.0759429229186581	0.40038928374965554	0.5616626184733701	1.0694867082131794	-0.08635555815606646	0.4014742284153081	0.40945644711245954	-0.13373630399635458	0.49526612017880756	0.697395990644889	-0.13880771437789807	0.5076763087054117	0.9692107479476597	-0.08343374744979715	0.454844018172851	1.0623346572874763	-0.09470238699043901	0.44517967849829865	1.075120957193976	-0.15100582249373323	0.5307512209532671	1.0742400150644902
218	3.694915254237288	0.2189848965705874	0.5907240892005092	0.9429978915192316	0.21334826711604493	0.806457525689644	1.3185567322039466	0.22127304665499473	1.0555574329844004	1.7176707445668495	0.15933526325497935	0.8479281237507974	1.7793674540250777	0.23256878631383696	0.8771784955943572	1.7902491556402758	0.20373750453557943	1.1867850033820442	1.777309213655178	-0.013011698647133162	0.5867017451346722	0.94791553715798	0.01709916193132611	0.8058054930199218	1.332925547906735	0.021476205029073887	1.060467316457739	1.729093250568858	0.02367746985269978	0.8607268736867688	1.785381019639042	-0.03373219105459323	0.9211641827002169	1.7835441767947375	0.05314784161776649	1.188168157629062	1.7880426629984443	0.09068807548876262	0.3568732813539985	0.3228075476755973	0.11112956069148851	0.21930000037698674	0.11426515682874518	0.1475159593563774	0.1833548315065307	0.2592643887895671	0.26926572308056823	0.39914353772418665	0.40809202112167586	0.35155635163348137	0.5231702000915543	0.6513251776567054	0.3929999319479606	0.5182456938982337	0.9330670542826331	0.3409943566624287	0.5513399247574579	1.0477468974873068	0.3831754529831636	0.5508939244021386	1.0754646436300368	0.39989635749003927	0.5616011056714458	1.0657551650552106	-0.0863708163666491	0.401570189319569	0.4094310780724494	-0.13377470127052124	0.4950750616214377	0.6973476957821708	-0.13889267002309963	0.5073875654165817	0.9691505658260979	-0.08754195470821978	0.4536169964397827	1.0592023282632732	-0.09514657259315294	0.4442272296820353	1.071845970262588	-0.15377819527712597	0.5306569993682417	1.0808137127236788
219	3.711864406779661	0.21900210477966306	0.5892343875212883	0.9356697776300502	0.2133927354420742	0.8068668746551673	1.3186646936857664	0.22127904868280218	1.0554909716714864	1.717607525681503	0.16058663209902477	0.8513497085193569	1.7834380531670526	0.23735180829799538	0.8784186397587614	1.7905539412603726	0.20615780630851904	1.164165726475719	1.7668687263023555	-0.012185476500260018	0.5861274117123092	0.9481226499550994	0.017078324689820238	0.8061156533021003	1.3330286828066862	0.022772322808951497	1.0642360560256654	1.7341402913084665	0.023697578206184202	0.86119198394746	1.7855537819212053	-0.03834557424606995	0.93721140568569	1.7871274405541535	0.052805371661394845	1.1859151656350098	1.7874565424771476	0.09069672548295339	0.35683999629117236	0.32281477226184735	0.11114181888063848	0.21927535871808843	0.1142978434334083	0.15112663363420747	0.18369235653993427	0.25902787081931755	0.2693114721847689	0.3991855467576765	0.40803853084952285	0.35166439259213966	0.5231587497693236	0.6512792910919599	0.3929473469349159	0.5184314488763622	0.9330588291531333	0.34188395571256847	0.5537372326747793	1.05112126030507	0.3835256939540698	0.549813562183872	1.072072621957343	0.39990725475213434	0.5614648039337379	1.065681617473094	-0.08599624231138703	0.4034032423210772	0.4124478979076779	-0.13378169968356535	0.4950982050856372	0.6972560187404313	-0.1389827339214289	0.5070501897110332	0.9691165439043435	-0.08743231634844865	0.45354475934701394	1.0624699470357404	-0.09536127761087884	0.4438746166829588	1.0720558778090747	-0.1537505913668293	0.5311801032095445	1.0808987185776393
